<svg xmlns="http://www.w3.org/2000/svg" viewBox="0 0 64 64">
  <rect width="64" height="64" rx="14" fill="#f59e0b"/>
  <g fill="#111827">
    <rect x="10" y="10" width="14" height="14" rx="2"/>
    <rect x="40" y="10" width="14" height="14" rx="2"/>
    <rect x="10" y="40" width="14" height="14" rx="2"/>
    <rect x="13" y="13" width="8" height="8" fill="#f59e0b"/>
    <rect x="43" y="13" width="8" height="8" fill="#f59e0b"/>
    <rect x="13" y="43" width="8" height="8" fill="#f59e0b"/>
    <rect x="28" y="10" width="4" height="4"/>
    <rect x="28" y="18" width="4" height="4"/>
    <rect x="28" y="26" width="4" height="4"/>
    <rect x="34" y="28" width="4" height="4"/>
    <rect x="40" y="28" width="4" height="4"/>
    <rect x="40" y="36" width="4" height="4"/>
    <rect x="34" y="40" width="4" height="4"/>
    <rect x="42" y="42" width="4" height="4"/>
    <rect x="48" y="46" width="4" height="4"/>
    <rect x="42" y="50" width="4" height="4"/>
    <rect x="50" y="50" width="4" height="4"/>
    <rect x="28" y="50" width="4" height="4"/>
    <rect x="34" y="48" width="4" height="4"/>
  </g>
</svg>
